<mxfile host="Electron" modified="2024-07-11T03:14:00.333Z" agent="Mozilla/5.0 (Macintosh; Intel Mac OS X 10_15_7) AppleWebKit/537.36 (KHTML, like Gecko) draw.io/22.1.16 Chrome/120.0.6099.109 Electron/28.1.0 Safari/537.36" etag="HXGNlhgOXFZRz6zs5oht" version="22.1.16" type="device">
  <diagram name="第 1 页" id="9Oog0-D7ZCl4sMxFgo37">
    <mxGraphModel dx="1866" dy="797" grid="1" gridSize="10" guides="1" tooltips="1" connect="1" arrows="1" fold="1" page="1" pageScale="1" pageWidth="827" pageHeight="1169" math="0" shadow="0">
      <root>
        <mxCell id="0" />
        <mxCell id="1" parent="0" />
        <mxCell id="uxbuTQwOqJ31L3AToYdR-1" value="云端管理系统" style="rounded=1;whiteSpace=wrap;html=1;fillColor=#ffe6cc;strokeColor=#d79b00;" parent="1" vertex="1">
          <mxGeometry x="210" y="285" width="120" height="70" as="geometry" />
        </mxCell>
        <mxCell id="uxbuTQwOqJ31L3AToYdR-2" value="用户管理" style="rounded=1;whiteSpace=wrap;html=1;fillColor=#fff2cc;strokeColor=#d6b656;" parent="1" vertex="1">
          <mxGeometry x="410" y="140" width="120" height="60" as="geometry" />
        </mxCell>
        <mxCell id="uxbuTQwOqJ31L3AToYdR-3" value="节点管理" style="rounded=1;whiteSpace=wrap;html=1;fillColor=#fff2cc;strokeColor=#d6b656;" parent="1" vertex="1">
          <mxGeometry x="414" y="290" width="120" height="60" as="geometry" />
        </mxCell>
        <mxCell id="uxbuTQwOqJ31L3AToYdR-4" value="数据集管理" style="rounded=1;whiteSpace=wrap;html=1;fillColor=#fff2cc;strokeColor=#d6b656;" parent="1" vertex="1">
          <mxGeometry x="414" y="450" width="120" height="60" as="geometry" />
        </mxCell>
        <mxCell id="uxbuTQwOqJ31L3AToYdR-5" value="模型训练" style="rounded=1;whiteSpace=wrap;html=1;fillColor=#fff2cc;strokeColor=#d6b656;" parent="1" vertex="1">
          <mxGeometry x="-150" y="160" width="120" height="60" as="geometry" />
        </mxCell>
        <mxCell id="uxbuTQwOqJ31L3AToYdR-6" value="模型分发" style="rounded=1;whiteSpace=wrap;html=1;fillColor=#fff2cc;strokeColor=#d6b656;" parent="1" vertex="1">
          <mxGeometry x="-150" y="290" width="120" height="60" as="geometry" />
        </mxCell>
        <mxCell id="uxbuTQwOqJ31L3AToYdR-7" value="增删改查" style="rounded=1;whiteSpace=wrap;html=1;fillColor=#fff2cc;strokeColor=#d6b656;" parent="1" vertex="1">
          <mxGeometry x="-150" y="430" width="120" height="60" as="geometry" />
        </mxCell>
        <mxCell id="zJ-5HvcJPhkim34TcQ5L-1" value="" style="edgeStyle=none;orthogonalLoop=1;jettySize=auto;html=1;rounded=0;curved=1;exitX=1;exitY=0;exitDx=0;exitDy=0;entryX=0;entryY=0.5;entryDx=0;entryDy=0;" edge="1" parent="1" source="uxbuTQwOqJ31L3AToYdR-1" target="uxbuTQwOqJ31L3AToYdR-2">
          <mxGeometry width="80" relative="1" as="geometry">
            <mxPoint x="330" y="260" as="sourcePoint" />
            <mxPoint x="410" y="260" as="targetPoint" />
            <Array as="points">
              <mxPoint x="320" y="190" />
            </Array>
          </mxGeometry>
        </mxCell>
        <mxCell id="zJ-5HvcJPhkim34TcQ5L-2" value="" style="edgeStyle=none;orthogonalLoop=1;jettySize=auto;html=1;rounded=0;curved=1;entryX=1;entryY=0.5;entryDx=0;entryDy=0;exitX=0;exitY=0;exitDx=0;exitDy=0;" edge="1" parent="1" source="zJ-5HvcJPhkim34TcQ5L-13" target="uxbuTQwOqJ31L3AToYdR-5">
          <mxGeometry width="80" relative="1" as="geometry">
            <mxPoint x="30" y="250" as="sourcePoint" />
            <mxPoint x="440" y="90" as="targetPoint" />
            <Array as="points">
              <mxPoint x="30" y="200" />
            </Array>
          </mxGeometry>
        </mxCell>
        <mxCell id="zJ-5HvcJPhkim34TcQ5L-3" style="edgeStyle=orthogonalEdgeStyle;rounded=0;orthogonalLoop=1;jettySize=auto;html=1;exitX=0.5;exitY=1;exitDx=0;exitDy=0;" edge="1" parent="1" source="uxbuTQwOqJ31L3AToYdR-7" target="uxbuTQwOqJ31L3AToYdR-7">
          <mxGeometry relative="1" as="geometry" />
        </mxCell>
        <mxCell id="zJ-5HvcJPhkim34TcQ5L-4" value="" style="edgeStyle=none;orthogonalLoop=1;jettySize=auto;html=1;rounded=0;curved=1;entryX=1;entryY=0.5;entryDx=0;entryDy=0;exitX=0;exitY=1;exitDx=0;exitDy=0;" edge="1" parent="1" source="zJ-5HvcJPhkim34TcQ5L-13" target="uxbuTQwOqJ31L3AToYdR-7">
          <mxGeometry width="80" relative="1" as="geometry">
            <mxPoint x="10" y="460" as="sourcePoint" />
            <mxPoint x="110" y="420" as="targetPoint" />
            <Array as="points">
              <mxPoint x="40" y="450" />
            </Array>
          </mxGeometry>
        </mxCell>
        <mxCell id="zJ-5HvcJPhkim34TcQ5L-5" value="" style="edgeStyle=none;orthogonalLoop=1;jettySize=auto;html=1;rounded=0;curved=1;exitX=1;exitY=1;exitDx=0;exitDy=0;entryX=0;entryY=0.5;entryDx=0;entryDy=0;" edge="1" parent="1" source="uxbuTQwOqJ31L3AToYdR-1" target="uxbuTQwOqJ31L3AToYdR-4">
          <mxGeometry width="80" relative="1" as="geometry">
            <mxPoint x="220" y="365" as="sourcePoint" />
            <mxPoint x="110" y="510" as="targetPoint" />
            <Array as="points">
              <mxPoint x="310" y="490" />
            </Array>
          </mxGeometry>
        </mxCell>
        <mxCell id="zJ-5HvcJPhkim34TcQ5L-6" value="" style="edgeStyle=none;orthogonalLoop=1;jettySize=auto;html=1;rounded=0;curved=1;exitX=1;exitY=0.5;exitDx=0;exitDy=0;entryX=0;entryY=0.5;entryDx=0;entryDy=0;" edge="1" parent="1" source="uxbuTQwOqJ31L3AToYdR-1" target="uxbuTQwOqJ31L3AToYdR-3">
          <mxGeometry width="80" relative="1" as="geometry">
            <mxPoint x="350" y="319.5" as="sourcePoint" />
            <mxPoint x="430" y="319.5" as="targetPoint" />
            <Array as="points" />
          </mxGeometry>
        </mxCell>
        <mxCell id="zJ-5HvcJPhkim34TcQ5L-7" value="" style="edgeStyle=none;orthogonalLoop=1;jettySize=auto;html=1;rounded=0;curved=1;entryX=1;entryY=0.5;entryDx=0;entryDy=0;exitX=0;exitY=0.5;exitDx=0;exitDy=0;" edge="1" parent="1" source="zJ-5HvcJPhkim34TcQ5L-13" target="uxbuTQwOqJ31L3AToYdR-6">
          <mxGeometry width="80" relative="1" as="geometry">
            <mxPoint x="-30" y="320" as="sourcePoint" />
            <mxPoint x="340" y="320" as="targetPoint" />
            <Array as="points" />
          </mxGeometry>
        </mxCell>
        <mxCell id="zJ-5HvcJPhkim34TcQ5L-8" value="增删改查" style="rounded=1;whiteSpace=wrap;html=1;fillColor=#fff2cc;strokeColor=#d6b656;" vertex="1" parent="1">
          <mxGeometry x="580" y="290" width="120" height="60" as="geometry" />
        </mxCell>
        <mxCell id="zJ-5HvcJPhkim34TcQ5L-9" value="" style="edgeStyle=none;orthogonalLoop=1;jettySize=auto;html=1;rounded=0;curved=1;exitX=1;exitY=0.5;exitDx=0;exitDy=0;entryX=0;entryY=0.5;entryDx=0;entryDy=0;" edge="1" parent="1" source="uxbuTQwOqJ31L3AToYdR-3" target="zJ-5HvcJPhkim34TcQ5L-8">
          <mxGeometry width="80" relative="1" as="geometry">
            <mxPoint x="549.9999999999998" y="320" as="sourcePoint" />
            <mxPoint x="640" y="319.41" as="targetPoint" />
            <Array as="points" />
          </mxGeometry>
        </mxCell>
        <mxCell id="zJ-5HvcJPhkim34TcQ5L-10" value="增删改查" style="rounded=1;whiteSpace=wrap;html=1;fillColor=#fff2cc;strokeColor=#d6b656;" vertex="1" parent="1">
          <mxGeometry x="580" y="450" width="120" height="60" as="geometry" />
        </mxCell>
        <mxCell id="zJ-5HvcJPhkim34TcQ5L-11" value="" style="edgeStyle=none;orthogonalLoop=1;jettySize=auto;html=1;rounded=0;curved=1;exitX=1;exitY=0.5;exitDx=0;exitDy=0;entryX=0;entryY=0.5;entryDx=0;entryDy=0;" edge="1" parent="1" source="uxbuTQwOqJ31L3AToYdR-4" target="zJ-5HvcJPhkim34TcQ5L-10">
          <mxGeometry width="80" relative="1" as="geometry">
            <mxPoint x="570" y="469.40999999999997" as="sourcePoint" />
            <mxPoint x="646" y="469.40999999999997" as="targetPoint" />
            <Array as="points" />
          </mxGeometry>
        </mxCell>
        <mxCell id="zJ-5HvcJPhkim34TcQ5L-13" value="模型管理" style="rounded=1;whiteSpace=wrap;html=1;fillColor=#fff2cc;strokeColor=#d6b656;" vertex="1" parent="1">
          <mxGeometry x="40" y="290" width="120" height="60" as="geometry" />
        </mxCell>
        <mxCell id="zJ-5HvcJPhkim34TcQ5L-14" value="" style="edgeStyle=none;orthogonalLoop=1;jettySize=auto;html=1;rounded=0;curved=1;entryX=1;entryY=0.5;entryDx=0;entryDy=0;exitX=0;exitY=0.5;exitDx=0;exitDy=0;" edge="1" parent="1" source="uxbuTQwOqJ31L3AToYdR-1" target="zJ-5HvcJPhkim34TcQ5L-13">
          <mxGeometry width="80" relative="1" as="geometry">
            <mxPoint x="40" y="410" as="sourcePoint" />
            <mxPoint x="-90" y="410" as="targetPoint" />
            <Array as="points" />
          </mxGeometry>
        </mxCell>
      </root>
    </mxGraphModel>
  </diagram>
</mxfile>
